<svg id="レイヤー_1" data-name="レイヤー 1" xmlns="http://www.w3.org/2000/svg" viewBox="0 0 62.38 58.35"><defs><style>.cls-1{fill:#209d82;}.cls-2{fill:#5f656f;}</style></defs><path class="cls-1" d="M37.36,35.25c1.69-.45,2-.15,2,1.72A37.9,37.9,0,0,1,38,43.77c-1.13,3.94-1,4.69.6,5.16,3,.86,1.87,2.2-4.35,5.73-4.79,2.57-5.67,3.47-5.22,5.16.67,2.37-1.57,2.56-8.49.58-4-1.16-4.7-1-5.19.69-.55,1.93-.65,1.9-3-.66A19.92,19.92,0,0,1,8.69,54.7C7.81,52,7.2,51.57,5.31,52c-1.22.28-2.33.17-2.54-.2S3,48.39,3.88,45c1.16-4.77,1.19-6.32,0-6.87C1.61,37,2.44,35.85,8.12,32.38c4.17-2.55,5.07-3.54,4.51-4.85-1-2.26,2.37-2.44,8.66-.43,2.49.72,4.77,1,4.76.43C26,23.2,31.4,28,33.3,32,35,35.29,35.64,35.8,37.36,35.25ZM24.08,48.92c3-1.65,3.73-3.93,2.53-7.39-.54-1.72-1.79-2.8-4-3.44-3.85-1.1-5.8-.1-6.87,3.65C14.11,47.41,19,51.73,24.08,48.92Z" transform="translate(-2.71 -4.1)"/><path class="cls-2" d="M39.3,39.4c-3.8-3.9-4.9-4.5-6.4-3.6-2.1,1.3-2.9-.8-2.9-8,0-4.2-.3-4.8-2.1-4.8-2,0-2-.1-.2-3.1a20.12,20.12,0,0,1,4.5-5.1c2.4-1.6,2.6-2.3,1.7-4-.6-1.1-.8-2.2-.5-2.5s3.3-.7,6.8-.8c4.9-.2,6.4-.6,6.6-1.9.5-2.5,1.8-2,6.7,2.5,3.6,3.3,4.8,3.9,5.9,3,1.9-1.6,3,1.6,2.8,8.2,0,2.6.33,4.88.9,4.7,4.14-1.26,1.05,5.26-2.3,8.2-2.7,2.5-3,3.3-2,4.8s.7,1.9-1.1,2.4a37.3,37.3,0,0,1-6.9.6c-4.1,0-4.8.3-4.8,2C46,45.1,44.4,44.4,39.3,39.4Zm10.5-11c1.5-1,2.2-2.5,2.2-4.8,0-4-1.5-5.6-5.4-5.6-5.9,0-8.7,5.9-4.6,10C44.4,30.4,46.8,30.5,49.8,28.4Z" transform="translate(-2.71 -4.1)"/></svg>